<svg width="40" height="40" viewBox="0 0 40 40" fill="none" xmlns="http://www.w3.org/2000/svg">
<rect width="40" height="40" rx="20" fill="#F2F2F2"/>
<path d="M28.75 18.75H13.925L18.4625 13.3C18.6747 13.0447 18.7768 12.7156 18.7463 12.3851C18.7158 12.0546 18.5553 11.7497 18.3 11.5375C18.0447 11.3253 17.7156 11.2232 17.3851 11.2537C17.0546 11.2842 16.7497 11.4447 16.5375 11.7L10.2875 19.2C10.2455 19.2596 10.2078 19.3223 10.175 19.3875C10.175 19.45 10.175 19.4875 10.0875 19.55C10.0308 19.6933 10.0012 19.8459 10 20C10.0012 20.1541 10.0308 20.3067 10.0875 20.45C10.0875 20.5125 10.0875 20.55 10.175 20.6125C10.2078 20.6777 10.2455 20.7403 10.2875 20.8L16.5375 28.3C16.655 28.4411 16.8022 28.5546 16.9686 28.6323C17.1349 28.7101 17.3164 28.7503 17.5 28.75C17.7921 28.7506 18.0751 28.6488 18.3 28.4625C18.4266 28.3576 18.5312 28.2287 18.6079 28.0832C18.6846 27.9378 18.7318 27.7787 18.7469 27.615C18.762 27.4512 18.7447 27.2861 18.6959 27.1291C18.6471 26.9721 18.5678 26.8263 18.4625 26.7L13.925 21.25H28.75C29.0815 21.25 29.3995 21.1183 29.6339 20.8839C29.8683 20.6495 30 20.3315 30 20C30 19.6685 29.8683 19.3505 29.6339 19.1161C29.3995 18.8817 29.0815 18.75 28.75 18.75Z" fill="#B5B3B3"/>
</svg>
