<svg width="40" height="40" viewBox="0 0 40 40" fill="none" xmlns="http://www.w3.org/2000/svg">
<g clip-path="url(#clip0_704_1241)">
<path fill-rule="evenodd" clip-rule="evenodd" d="M8.33336 15C8.33336 11.9058 9.56252 8.93835 11.7504 6.75042C13.9384 4.5625 16.9058 3.33334 20 3.33334C23.0942 3.33334 26.0617 4.5625 28.2496 6.75042C30.4375 8.93835 31.6667 11.9058 31.6667 15V21.2733L34.7034 27.3467C34.8432 27.6262 34.9092 27.9368 34.8951 28.2491C34.8811 28.5613 34.7874 28.8647 34.6231 29.1306C34.4588 29.3964 34.2292 29.6159 33.9563 29.768C33.6833 29.9202 33.3759 30 33.0634 30H26.4567C26.086 31.4304 25.2507 32.6972 24.0821 33.6015C22.9135 34.5059 21.4777 34.9966 20 34.9966C18.5224 34.9966 17.0865 34.5059 15.9179 33.6015C14.7493 32.6972 13.9141 31.4304 13.5434 30H6.93669C6.62416 30 6.3168 29.9202 6.0438 29.768C5.77081 29.6159 5.54126 29.3964 5.37693 29.1306C5.21261 28.8647 5.11898 28.5613 5.10494 28.2491C5.0909 27.9368 5.1569 27.6262 5.29669 27.3467L8.33336 21.2733V15ZM17.1134 30C17.4059 30.5067 17.8267 30.9275 18.3334 31.22C18.8401 31.5125 19.4149 31.6665 20 31.6665C20.5851 31.6665 21.1599 31.5125 21.6666 31.22C22.1733 30.9275 22.5941 30.5067 22.8867 30H17.1134ZM20 6.66667C17.7899 6.66667 15.6703 7.54464 14.1075 9.10745C12.5447 10.6702 11.6667 12.7899 11.6667 15V21.2733C11.6667 21.7906 11.5463 22.3007 11.315 22.7633L9.36503 26.6667H30.6367L28.6867 22.7633C28.4549 22.3008 28.3339 21.7907 28.3334 21.2733V15C28.3334 12.7899 27.4554 10.6702 25.8926 9.10745C24.3298 7.54464 22.2102 6.66667 20 6.66667Z" fill="#B5B3B3"/>
</g>
<defs>
<clipPath id="clip0_704_1241">
<rect width="40" height="40" fill="white"/>
</clipPath>
</defs>
</svg>
