<svg width="34" height="30" viewBox="0 0 34 30" fill="none" xmlns="http://www.w3.org/2000/svg">
<path d="M13.6667 18.3333C13.6667 19.2174 14.0179 20.0652 14.643 20.6904C15.2681 21.3155 16.116 21.6667 17 21.6667C17.8841 21.6667 18.7319 21.3155 19.357 20.6904C19.9822 20.0652 20.3334 19.2174 20.3334 18.3333C20.3334 17.4493 19.9822 16.6014 19.357 15.9763C18.7319 15.3512 17.8841 15 17 15C16.116 15 15.2681 15.3512 14.643 15.9763C14.0179 16.6014 13.6667 17.4493 13.6667 18.3333Z" stroke="#BBC2C9" stroke-width="3" stroke-linecap="round" stroke-linejoin="round"/>
<path d="M25.3333 11.6667L22 1.66666M8.66668 11.6667L12 1.66666M5.33501 8.33333H28.6667C29.1473 8.33327 29.6222 8.43715 30.0589 8.63783C30.4957 8.83851 30.8838 9.13126 31.1968 9.496C31.5097 9.86074 31.7401 10.2889 31.8722 10.751C32.0042 11.2131 32.0347 11.6983 31.9617 12.1733L29.87 24.0933C29.6884 25.2741 29.0901 26.3508 28.1833 27.1285C27.2766 27.9063 26.1213 28.3337 24.9267 28.3333H9.07335C7.87901 28.3333 6.72415 27.9057 5.81773 27.128C4.91131 26.3503 4.31322 25.2738 4.13168 24.0933L2.04001 12.1733C1.96696 11.6983 1.99749 11.2131 2.12952 10.751C2.26155 10.2889 2.49195 9.86074 2.80492 9.496C3.1179 9.13126 3.50604 8.83851 3.94275 8.63783C4.37946 8.43715 4.8544 8.33327 5.33501 8.33333Z" stroke="#BBC2C9" stroke-width="3" stroke-linecap="round" stroke-linejoin="round"/>
</svg>
