<svg width="34" height="30" viewBox="0 0 34 30" fill="none" xmlns="http://www.w3.org/2000/svg">
<path d="M13.667 18.3333C13.667 19.2174 14.0182 20.0652 14.6433 20.6904C15.2684 21.3155 16.1163 21.6667 17.0003 21.6667C17.8844 21.6667 18.7322 21.3155 19.3573 20.6904C19.9825 20.0652 20.3337 19.2174 20.3337 18.3333C20.3337 17.4493 19.9825 16.6014 19.3573 15.9763C18.7322 15.3512 17.8844 15 17.0003 15C16.1163 15 15.2684 15.3512 14.6433 15.9763C14.0182 16.6014 13.667 17.4493 13.667 18.3333Z" stroke="#FCFCFC" stroke-width="2.5" stroke-linecap="round" stroke-linejoin="round"/>
<path d="M25.3335 11.6667L22.0002 1.66669M8.66686 11.6667L12.0002 1.66669M5.3352 8.33335H28.6669C29.1475 8.3333 29.6224 8.43717 30.0591 8.63785C30.4958 8.83854 30.884 9.13129 31.197 9.49603C31.5099 9.86077 31.7403 10.2889 31.8724 10.751C32.0044 11.2131 32.0349 11.6983 31.9619 12.1734L29.8702 24.0934C29.6886 25.2741 29.0903 26.3508 28.1835 27.1286C27.2768 27.9063 26.1215 28.3337 24.9269 28.3334H9.07353C7.8792 28.3333 6.72433 27.9057 5.81791 27.128C4.91149 26.3503 4.3134 25.2738 4.13186 24.0934L2.0402 12.1734C1.96714 11.6983 1.99768 11.2131 2.12971 10.751C2.26173 10.2889 2.49213 9.86077 2.80511 9.49603C3.11808 9.13129 3.50623 8.83854 3.94293 8.63785C4.37964 8.43717 4.85458 8.3333 5.3352 8.33335Z" stroke="#FCFCFC" stroke-width="2.5" stroke-linecap="round" stroke-linejoin="round"/>
</svg>
