<svg width="34" height="34" viewBox="0 0 34 34" fill="none" xmlns="http://www.w3.org/2000/svg">
<path d="M10.1665 33.6668C9.24984 33.6668 8.4654 33.3407 7.81318 32.6885C7.16095 32.0363 6.83429 31.2513 6.83318 30.3335C6.83207 29.4157 7.15873 28.6313 7.81318 27.9802C8.46762 27.3291 9.25207 27.0024 10.1665 27.0002C11.081 26.9979 11.866 27.3246 12.5215 27.9802C13.1771 28.6357 13.5032 29.4202 13.4998 30.3335C13.4965 31.2468 13.1704 32.0318 12.5215 32.6885C11.8726 33.3452 11.0876 33.6713 10.1665 33.6668ZM26.8332 33.6668C25.9165 33.6668 25.1321 33.3407 24.4798 32.6885C23.8276 32.0363 23.501 31.2513 23.4998 30.3335C23.4987 29.4157 23.8254 28.6313 24.4798 27.9802C25.1343 27.3291 25.9187 27.0024 26.8332 27.0002C27.7476 26.9979 28.5326 27.3246 29.1882 27.9802C29.8437 28.6357 30.1698 29.4202 30.1665 30.3335C30.1632 31.2468 29.8371 32.0318 29.1882 32.6885C28.5393 33.3452 27.7543 33.6713 26.8332 33.6668ZM3.49984 3.66683H1.83318C1.36095 3.66683 0.965399 3.50683 0.64651 3.18683C0.327621 2.86683 0.167621 2.47127 0.16651 2.00016C0.165399 1.52905 0.325399 1.1335 0.64651 0.813496C0.967621 0.493496 1.36318 0.333496 1.83318 0.333496H4.58318C4.88873 0.333496 5.1804 0.41683 5.45818 0.583496C5.73595 0.750163 5.94429 0.986274 6.08318 1.29183L12.7082 15.3335H24.3748L30.4165 4.50016C30.5554 4.22238 30.7498 4.01405 30.9998 3.87516C31.2498 3.73627 31.5276 3.66683 31.8332 3.66683C32.4721 3.66683 32.9515 3.93794 33.2715 4.48016C33.5915 5.02238 33.5982 5.57072 33.2915 6.12516L27.3332 16.9168C27.0276 17.4724 26.6182 17.9029 26.1048 18.2085C25.5915 18.5141 25.0287 18.6668 24.4165 18.6668H11.9998L10.1665 22.0002H28.4998C28.9721 22.0002 29.3682 22.1602 29.6882 22.4802C30.0082 22.8002 30.1676 23.1957 30.1665 23.6668C30.1654 24.1379 30.0054 24.534 29.6865 24.8552C29.3676 25.1763 28.9721 25.3357 28.4998 25.3335H10.1665C8.91651 25.3335 7.96484 24.7918 7.31151 23.7085C6.65818 22.6252 6.63762 21.5279 7.24984 20.4168L9.49984 16.3335L3.49984 3.66683ZM18.7915 8.66683H13.4998C13.0276 8.66683 12.6321 8.50683 12.3132 8.18683C11.9943 7.86683 11.8343 7.47127 11.8332 7.00016C11.8321 6.52905 11.9921 6.1335 12.3132 5.8135C12.6343 5.4935 13.0298 5.3335 13.4998 5.3335H18.7915L17.2915 3.8335C16.9582 3.50016 16.7982 3.11127 16.8115 2.66683C16.8248 2.22239 16.9987 1.8335 17.3332 1.50016C17.6665 1.19461 18.0554 1.03461 18.4998 1.02016C18.9443 1.00572 19.3332 1.16572 19.6665 1.50016L23.9998 5.8335C24.3332 6.16683 24.4998 6.55572 24.4998 7.00016C24.4998 7.44461 24.3332 7.8335 23.9998 8.16683L19.6665 12.5002C19.361 12.8057 18.9793 12.9657 18.5215 12.9802C18.0637 12.9946 17.6676 12.8346 17.3332 12.5002C17.0276 12.1946 16.8748 11.8057 16.8748 11.3335C16.8748 10.8613 17.0276 10.4724 17.3332 10.1668L18.7915 8.66683Z" fill="#FCFCFC"/>
</svg>
