<svg width="29" height="28" viewBox="0 0 29 28" fill="none" xmlns="http://www.w3.org/2000/svg">
<path fill-rule="evenodd" clip-rule="evenodd" d="M14.4999 16.4755L20.6867 22.6624C21.015 22.9907 21.4603 23.1751 21.9245 23.1751C22.3888 23.1751 22.8341 22.9907 23.1624 22.6624C23.4907 22.3341 23.6751 21.8888 23.6751 21.4246C23.6751 20.9603 23.4907 20.515 23.1624 20.1867L16.9732 13.9999L23.1612 7.81305C23.3237 7.6505 23.4525 7.45753 23.5404 7.24517C23.6284 7.03281 23.6736 6.80522 23.6735 6.57539C23.6735 6.34556 23.6281 6.11798 23.5401 5.90567C23.4521 5.69335 23.3232 5.50045 23.1606 5.33797C22.9981 5.17549 22.8051 5.04662 22.5927 4.95872C22.3804 4.87081 22.1528 4.8256 21.923 4.82565C21.6931 4.82571 21.4655 4.87103 21.2532 4.95903C21.0409 5.04704 20.848 5.176 20.6855 5.33855L14.4999 11.5254L8.31303 5.33855C8.15168 5.17133 7.95864 5.03793 7.74517 4.94611C7.53171 4.8543 7.3021 4.80591 7.06974 4.80378C6.83737 4.80166 6.60692 4.84583 6.39181 4.93372C6.1767 5.02161 5.98125 5.15146 5.81686 5.31569C5.65247 5.47992 5.52243 5.67525 5.43434 5.89028C5.34625 6.10531 5.30186 6.33572 5.30377 6.56809C5.30568 6.80045 5.35385 7.03011 5.44546 7.24366C5.53707 7.45721 5.6703 7.65037 5.83736 7.81188L12.0265 13.9999L5.83853 20.1879C5.67147 20.3494 5.53824 20.5426 5.44663 20.7561C5.35501 20.9697 5.30685 21.1993 5.30494 21.4317C5.30303 21.664 5.34741 21.8945 5.43551 22.1095C5.5236 22.3245 5.65364 22.5198 5.81802 22.6841C5.98241 22.8483 6.17786 22.9782 6.39297 23.0661C6.60808 23.1539 6.83854 23.1981 7.0709 23.196C7.30327 23.1939 7.53288 23.1455 7.74634 23.0537C7.9598 22.9618 8.15284 22.8284 8.3142 22.6612L14.4999 16.4755Z" fill="#9F9C9C"/>
</svg>
