<svg width="60" height="60" viewBox="0 0 60 60" fill="none" xmlns="http://www.w3.org/2000/svg">
<path d="M30 40C32.785 40 35.1483 39.03 37.09 37.09C39.03 35.1467 40 32.7833 40 30C40 27.2167 39.03 24.8542 37.09 22.9125C35.15 20.9708 32.7867 20 30 20C27.2133 20 24.8508 20.9708 22.9125 22.9125C20.9742 24.8542 20.0033 27.2167 20 30C19.9967 32.7833 20.9675 35.1467 22.9125 37.09C24.8575 39.0333 27.22 40.0033 30 40ZM30.0075 52.5C26.8958 52.5 23.9708 51.91 21.2325 50.73C18.4942 49.5483 16.1117 47.945 14.085 45.92C12.0583 43.895 10.4542 41.515 9.2725 38.78C8.09083 36.045 7.5 33.1208 7.5 30.0075C7.5 26.8942 8.09083 23.9692 9.2725 21.2325C10.4525 18.4942 12.0533 16.1117 14.075 14.085C16.0967 12.0583 18.4775 10.4542 21.2175 9.2725C23.9575 8.09083 26.8825 7.5 29.9925 7.5C33.1025 7.5 36.0275 8.09083 38.7675 9.2725C41.5058 10.4525 43.8883 12.0542 45.915 14.0775C47.9417 16.1008 49.5458 18.4817 50.7275 21.22C51.9092 23.9583 52.5 26.8825 52.5 29.9925C52.5 33.1025 51.91 36.0275 50.73 38.7675C49.55 41.5075 47.9467 43.89 45.92 45.915C43.8933 47.94 41.5133 49.5442 38.78 50.7275C36.0467 51.9108 33.1225 52.5017 30.0075 52.5Z" fill="#9F9C9C"/>
</svg>
