<svg width="39" height="35" viewBox="0 0 39 35" fill="none" xmlns="http://www.w3.org/2000/svg">
<path d="M20.0437 31.1596C19.7329 31.4704 19.1803 31.5222 18.8176 31.1596C18.6558 30.9965 18.565 30.7762 18.565 30.5465C18.565 30.3168 18.6558 30.0964 18.8176 29.9334L24.672 24.079L22.237 21.644L16.3826 27.4984C16.0545 27.8438 15.5018 27.8265 15.1564 27.4984C14.9947 27.3354 14.9039 27.115 14.9039 26.8853C14.9039 26.6556 14.9947 26.4353 15.1564 26.2722L21.0108 20.4178L18.5758 17.9828L12.7214 23.8372C12.4106 24.1481 11.8579 24.1999 11.4953 23.8372C11.3371 23.6723 11.2489 23.4526 11.2489 23.2241C11.2489 22.9957 11.3371 22.776 11.4953 22.6111L17.3497 16.7567L14.8974 14.3216L9.04297 20.1761C8.73211 20.4869 8.17949 20.5387 7.81682 20.1761C7.65871 20.0111 7.57044 19.7915 7.57044 19.563C7.57044 19.3345 7.65871 19.1148 7.81682 18.9499L15.3809 11.3858L18.6104 14.598C20.251 16.2386 23.0832 16.2213 24.7238 14.598C26.4162 12.9055 26.4162 10.1769 24.7238 8.48449L21.5117 5.27234L21.9952 4.78879C23.3422 3.44175 25.5355 3.44175 26.8825 4.78879L34.2049 12.1111C35.5519 13.4582 35.5519 15.6514 34.2049 16.9984L20.0437 31.1596ZM36.6399 19.4507C37.9336 18.1532 38.6602 16.3957 38.6602 14.5634C38.6602 12.7311 37.9336 10.9736 36.6399 9.6761L29.3176 2.35377C28.0201 1.06001 26.2625 0.333496 24.4302 0.333496C22.5979 0.333496 20.8404 1.06001 19.5429 2.35377L19.0594 2.83732L18.5758 2.35377C17.2783 1.06001 15.5208 0.333496 13.6885 0.333496C11.8562 0.333496 10.0987 1.06001 8.80119 2.35377L2.68773 8.46723C1.51944 9.63153 0.807296 11.1761 0.680551 12.8206C0.553805 14.4651 1.02086 16.1006 1.99695 17.4302L4.50105 14.9261C4.16721 14.2743 4.0492 13.5332 4.16405 12.8099C4.27891 12.0866 4.62069 11.4186 5.14003 10.9022L11.2535 4.78879C12.6005 3.44175 14.7938 3.44175 16.1408 4.78879L22.2888 10.9368C22.5997 11.2476 22.6515 11.8003 22.2888 12.1629C21.9261 12.5256 21.3735 12.4738 21.0627 12.1629L15.3809 6.49848L5.36453 16.4976C3.6721 18.1728 3.6721 20.9186 5.36453 22.6111C6.03805 23.2846 6.90153 23.6991 7.81682 23.82C7.93776 24.7486 8.36239 25.6112 9.02458 26.2734C9.68677 26.9356 10.5494 27.3602 11.478 27.4811C11.5989 28.4098 12.0236 29.2723 12.6857 29.9345C13.3479 30.5967 14.2105 31.0214 15.1392 31.1423C15.26 32.0748 15.6745 32.9211 16.348 33.5946C17.1597 34.4062 18.2477 34.8553 19.4048 34.8553C20.5618 34.8553 21.6498 34.4062 22.4615 33.5946L36.6399 19.4507Z" fill="#5E2764"/>
</svg>
