<svg width="50" height="8" viewBox="0 0 50 8" fill="none" xmlns="http://www.w3.org/2000/svg">
<path d="M8.79688 0.3125L7.20312 2.48438H15.9062C16.3438 2.48438 16.3344 2.65625 16.1156 2.94687C15.8969 3.24375 15.5328 3.75781 15.3141 4.05469C15.2047 4.21094 14.9906 4.48438 15.6703 4.48438H19.2359C19.2359 4.48438 19.8031 3.70312 20.2875 3.04688C20.9438 2.15625 20.3438 0.3125 18.0078 0.3125H8.79688ZM23.8031 0.3125L20.7344 4.48438H31.9531L35.0203 0.3125H30.4375L28.6797 2.70312H26.6328L28.3906 0.3125H23.8031ZM36.5234 0.3125L33.4531 4.48438H38.3125L41.3812 0.3125H36.5234ZM9.75781 3.03125L6.54531 7.39063H14.3672C16.9531 7.39063 18.3906 5.63438 18.8359 5.025H13.5078C12.8281 5.025 13.0391 4.74375 13.1484 4.59375C13.3672 4.29687 13.7422 3.78125 13.9609 3.49219C14.1797 3.20312 14.1797 3.03125 13.7422 3.03125H9.75781ZM0 5.025V5.525H7.07813L7.44687 5.025H0ZM20.3375 5.025L18.5938 7.38437H23.1813L24.9203 5.025H20.3375ZM26.9781 5.025C26.9703 5.025 25.2344 7.38437 25.2344 7.38437H29.8219L31.5609 5.025H26.9781ZM33.0531 5.025C33.0531 5.025 32.7203 5.48281 32.5563 5.70156C31.9781 6.48281 32.4828 7.38906 34.3656 7.38906H41.7359L43.475 5.025H33.0531ZM44.3203 5.025L43.9547 5.525H50V5.025H44.3203ZM0 5.95156V6.45156H6.39062L6.75625 5.95156H0ZM43.6344 5.95156L43.2641 6.45156H50V5.95156H43.6344ZM0 6.88281V7.38281H5.70937L6.07969 6.88281H0ZM42.9437 6.89219L42.5781 7.38906H50V6.89219H42.9437Z" fill="#183864"/>
</svg>
