<svg width="40" height="40" viewBox="0 0 40 40" fill="none" xmlns="http://www.w3.org/2000/svg">
<path d="M35.1604 0H35.6254C38.0404 0 40.0004 1.96 40.0004 4.375V4.84C39.9988 10.641 37.6931 16.2039 33.5904 20.305L32.4454 21.4525C31.6587 22.2375 30.8429 22.9908 29.9979 23.7125V31.73C29.9979 33.25 29.2104 34.66 27.9154 35.455L20.9804 39.7225C20.7367 39.8726 20.4618 39.9648 20.1769 39.9922C19.8919 40.0196 19.6045 39.9814 19.3366 39.8805C19.0688 39.7797 18.8275 39.6188 18.6314 39.4103C18.4354 39.2017 18.2896 38.9511 18.2054 38.6775L15.8204 30.9225C15.6899 30.8302 15.5685 30.7255 15.4579 30.61L9.3854 24.54C9.27075 24.4293 9.16695 24.3079 9.0754 24.1775L1.3204 21.7925C1.04683 21.7083 0.796173 21.5625 0.587642 21.3665C0.37911 21.1704 0.218241 20.9292 0.117365 20.6613C0.0164883 20.3934 -0.0217171 20.106 0.00567682 19.8211C0.0330707 19.5361 0.125337 19.2613 0.275403 19.0175L4.5504 12.0825C4.94185 11.4462 5.4897 10.9208 6.14176 10.5563C6.79382 10.1917 7.52836 10.0002 8.2754 10H16.2854C17.0071 9.15333 17.7604 8.3375 18.5454 7.5525L19.6929 6.4075C23.7951 2.30509 29.3589 0.000244442 35.1604 0ZM22.3454 9.0575H22.3404L21.1954 10.2025C19.2954 12.1025 17.6029 14.1975 16.1454 16.4525L12.3954 22.245L17.7529 27.6025L23.5454 23.8525C25.8004 22.395 27.8954 20.7025 29.7929 18.8025L30.9404 17.6575C32.6234 15.9742 33.9583 13.9759 34.869 11.7766C35.7797 9.5774 36.2482 7.22033 36.2479 4.84V4.375C36.2479 4.20924 36.1821 4.05027 36.0648 3.93306C35.9476 3.81585 35.7887 3.75 35.6229 3.75H35.1579C30.3523 3.75069 25.7438 5.65977 22.3454 9.0575ZM8.9004 36.4C7.0704 38.23 3.0654 39.0125 1.3879 39.27C1.29745 39.2854 1.20465 39.2788 1.11723 39.251C1.02981 39.2232 0.950323 39.1748 0.885403 39.11C0.82058 39.0451 0.772233 38.9656 0.744398 38.8782C0.716564 38.7908 0.710051 38.6979 0.725403 38.6075C0.982903 36.93 1.7654 32.925 3.6004 31.1C3.93969 30.7154 4.35418 30.4044 4.81829 30.1861C5.2824 29.9679 5.78631 29.847 6.29893 29.831C6.81155 29.8149 7.32202 29.9041 7.79886 30.0929C8.2757 30.2818 8.7088 30.5663 9.07146 30.9289C9.43411 31.2916 9.71863 31.7247 9.90747 32.2015C10.0963 32.6784 10.1855 33.1889 10.1694 33.7015C10.1534 34.2141 10.0325 34.718 9.81428 35.1821C9.59602 35.6462 9.285 36.0607 8.9004 36.4ZM26.2504 26.5625C26.0304 26.7125 25.8087 26.8583 25.5854 27L19.7104 30.8025L21.0804 35.26L25.9529 32.26C26.0438 32.204 26.1189 32.1257 26.171 32.0325C26.2231 31.9393 26.2504 31.8343 26.2504 31.7275V26.5625ZM9.1954 20.29L13.0004 14.415C13.1454 14.19 13.2921 13.9683 13.4404 13.75H8.2729C8.16612 13.75 8.06111 13.7773 7.9679 13.8294C7.87468 13.8815 7.79636 13.9566 7.7404 14.0475L4.7404 18.9225L9.1954 20.29ZM30.0004 12.5C30.0004 13.163 29.737 13.7989 29.2682 14.2678C28.7993 14.7366 28.1634 15 27.5004 15C26.8374 15 26.2015 14.7366 25.7326 14.2678C25.2638 13.7989 25.0004 13.163 25.0004 12.5C25.0004 11.837 25.2638 11.2011 25.7326 10.7322C26.2015 10.2634 26.8374 10 27.5004 10C28.1634 10 28.7993 10.2634 29.2682 10.7322C29.737 11.2011 30.0004 11.837 30.0004 12.5Z" fill="#5E2764"/>
</svg>
