<svg width="43" height="14" viewBox="0 0 43 14" fill="none" xmlns="http://www.w3.org/2000/svg">
<path d="M38.8792 9.02067L42.4917 4.96442H38.3604L36.8396 6.704L35.2625 4.96442H27.9292V3.73525H31.7979V0.541504H21.7646V5.18525C21.1633 4.72278 20.4183 4.48676 19.6604 4.51859C18.7345 4.51073 17.8351 4.82772 17.1187 5.41442C16.5996 5.84228 16.1861 6.38409 15.9104 6.99775C15.6171 6.33537 15.1561 5.76093 14.5729 5.33109C13.7488 4.7578 12.7617 4.46556 11.7583 4.49775C11.0858 4.47137 10.4157 4.59275 9.79512 4.85335C9.17457 5.11395 8.61871 5.50744 8.16667 6.00609V4.96442H4.575V3.73525H8.50417V0.541504H0.875V13.1144H4.575V8.03525H7.22083C7.16336 8.34864 7.13477 8.66664 7.13542 8.98526C7.12598 9.59325 7.24044 10.1968 7.47182 10.7591C7.7032 11.3215 8.04665 11.8308 8.48125 12.2561C9.37018 13.0883 10.547 13.5438 11.7646 13.5269C12.722 13.5532 13.6654 13.292 14.4729 12.7769C15.0978 12.3475 15.6003 11.7632 15.9313 11.0811C16.1574 11.5618 16.4655 11.9996 16.8417 12.3748C17.5988 13.1317 18.6253 13.5573 19.6958 13.5582C20.4676 13.5571 21.2093 13.2586 21.7667 12.7248V13.1207H35.15L36.7 11.3665L38.2625 13.1207H42.5417L38.8792 9.02067ZM11.7646 6.79984C12.0229 6.78317 12.2797 6.84988 12.4972 6.99015C12.7148 7.13042 12.8815 7.33684 12.9729 7.579H10.5875C10.6847 7.34732 10.8484 7.14964 11.0579 7.01096C11.2674 6.87228 11.5133 6.79881 11.7646 6.79984ZM13.0354 10.2894L12.9604 10.3936C12.8466 10.6032 12.6702 10.772 12.4558 10.8766C12.2415 10.9812 11.9998 11.0162 11.7646 10.9769C11.4442 10.9646 11.1374 10.8439 10.8945 10.6347C10.6515 10.4254 10.4867 10.1399 10.4271 9.82484H15.5458C15.5736 9.98178 15.6076 10.1366 15.6479 10.2894H13.0354ZM20.3 10.7832C20.0902 10.7652 19.886 10.7056 19.6994 10.6081C19.5127 10.5105 19.3473 10.3768 19.2128 10.2147C19.0783 10.0527 18.9773 9.86552 18.9158 9.66411C18.8542 9.46271 18.8332 9.25107 18.8542 9.0415C18.8542 8.10609 19.3021 7.1665 20.3 7.1665C21.5896 7.1665 21.6896 8.60609 21.6896 9.0415C21.6896 9.88317 21.325 10.7832 20.3 10.7832ZM31.3063 12.6207H25.0917V1.03317H31.3063V3.23525H27.4417V5.44359H31.3063V7.54775H27.4417V10.4144H31.3063V12.6207ZM27.9313 9.91234V8.02484H31.7979V5.84151L34.6375 9.03317L31.7979 12.2228V9.93109L27.9313 9.91234ZM36.7021 10.6123L34.9313 12.6123H32.0979L35.2938 9.02484L32.0979 5.4415H35.0417L36.8458 7.42901L38.5812 5.4415H41.3979L38.2188 9.01651L41.4438 12.6207H38.4854L36.7021 10.6123Z" fill="#183864"/>
</svg>
