<svg width="174" height="68" viewBox="0 0 174 68" fill="none" xmlns="http://www.w3.org/2000/svg">
<path d="M74.1441 2.4002C76.5122 4.70477 79.526 5.66501 79.526 4.0326C79.4184 2.30417 76.4045 -0.000400066 74.1441 -0.000400066H71.6685L74.1441 2.4002Z" fill="#183864"/>
<path d="M153.473 3.8297C154.119 6.03825 154.334 6.13428 157.133 4.78994C158.64 4.02175 159.178 4.11778 159.178 4.88597C159.178 5.55813 159.501 5.8462 159.824 5.46211C160.577 4.78994 158.748 1.71718 157.456 1.71718C157.025 1.71718 156.272 2.58139 155.841 3.54163C155.088 5.17404 154.98 5.17404 154.98 3.54163C154.873 2.67742 154.442 1.90923 153.904 1.90923C153.366 1.90923 153.15 2.77344 153.473 3.8297Z" fill="#183864"/>
<path d="M2.02689 7.58467C-0.556419 9.40912 -0.556419 9.50514 1.38106 11.4256C3.10326 13.058 3.31854 14.7864 2.88799 26.6934L2.56508 40.1367L6.22476 40.0407L9.77681 39.9447L9.34626 30.5343C9.13098 25.3491 9.23862 21.124 9.56153 21.124C9.88444 21.124 11.499 23.3326 13.1136 25.9252C14.8358 28.6139 16.3427 30.7264 16.558 30.7264C16.6656 30.7264 18.3878 28.5178 20.3253 25.9252C22.2628 23.2365 23.985 21.124 24.3079 21.124C24.6308 21.124 24.7385 25.3491 24.4155 30.5343L23.8774 39.9447H27.537H31.0891V24.8689C31.0891 16.5149 31.412 9.12105 31.7349 8.25684C32.2731 7.10455 31.7349 6.72046 29.9051 6.72046C27.8599 6.81648 26.1377 8.44888 22.1551 14.0183L16.8809 21.22L12.5754 15.6507C10.2074 12.6739 7.73169 9.12105 7.08586 7.96877C5.79421 5.2801 5.4713 5.2801 2.02689 7.58467Z" fill="#183864"/>
<path d="M126.671 9.88934C117.953 22.3725 120.644 38.0244 131.838 39.9449C134.098 40.329 136.574 39.9449 138.619 39.0806C140.987 38.0244 141.956 37.9284 141.956 38.6966C141.956 39.3687 143.247 39.8488 144.97 39.9449L147.876 40.0409V23.3327V6.72055H144.432H140.879V19.6838C140.879 32.551 140.879 32.7431 138.296 33.7033C127.748 38.0244 124.303 22.8526 133.345 11.5218L135.498 8.83308L132.807 7.2967C131.407 6.43248 130.008 5.76031 129.9 5.76031C129.685 5.76031 128.286 7.58477 126.671 9.88934Z" fill="#183864"/>
<path d="M42.6065 15.3635C40.4537 21.6051 39.1621 24.0057 37.9781 24.0057C36.4711 24.0057 36.2559 24.7739 36.7941 28.0387C37.2246 30.5353 36.7941 33.32 35.8253 35.4326C34.9642 37.257 34.426 38.7934 34.5337 38.8894C34.7489 38.9854 36.2559 39.5616 38.0857 40.0417L41.3148 41.002L42.9294 35.2405L44.544 29.4791L49.9259 29.383C54.4467 29.383 55.3078 29.5751 55.6307 31.2075C55.8459 32.2638 56.4918 34.7604 57.03 36.6809C57.9987 40.0417 58.4293 40.3298 61.766 40.3298C63.8111 40.3298 65.5334 40.2338 65.5334 40.0417C65.5334 39.8497 64.1341 36.2968 62.5195 32.0717C60.7973 27.9427 58.214 20.4528 56.9223 15.5556L54.339 6.72138H49.9259H45.5127L42.6065 15.3635ZM51.8634 18.4363L53.4779 24.0057H49.7106C46.6967 24.0057 46.1585 23.7176 46.5891 22.2773C46.912 21.4131 47.6655 18.7244 48.3113 16.4198C48.9571 14.2113 49.7106 12.4828 49.9259 12.5788C50.1411 12.7709 51.0022 15.4596 51.8634 18.4363Z" fill="#183864"/>
<path d="M68.5478 13.4411C68.7631 17.8582 68.5478 20.1628 67.7944 20.1628C67.1485 20.1628 66.6104 21.4111 66.6104 23.0435C66.6104 24.5799 67.1485 25.9242 67.7944 25.9242C68.4402 25.9242 68.8707 28.4208 68.6555 32.7419L68.4402 39.4636L78.7734 39.6556L89.2143 39.8477V36.9669V34.0862L82.2178 34.3743L75.2214 34.7584V29.7651V24.6759L80.6033 25.348L85.9852 26.0202V23.0435C85.9852 20.2588 85.8775 20.1628 80.6033 20.1628H75.2214V15.7457V11.2325L81.6796 11.8087L88.1379 12.4808V9.60013V6.71941H78.2352H68.2249L68.5478 13.4411Z" fill="#183864"/>
<path d="M92.4429 23.3315V39.8477L100.839 39.5596C105.359 39.2715 110.418 38.5033 112.033 37.8312C120.106 34.0862 120.321 20.0667 112.571 12.6729C108.911 9.12001 102.668 6.71941 97.2866 6.71941H92.4429V23.3315ZM104.929 14.3053C110.957 17.5701 113.432 25.156 110.203 30.6294C108.481 33.7021 106.651 34.5663 102.023 34.5663H98.9011V23.5236C98.9011 11.4246 99.1164 11.1365 104.929 14.3053Z" fill="#183864"/>
<path d="M17.248 52.848L14.016 64H12.384L9.792 55.024L7.104 64L5.488 64.016L2.368 52.848H3.92L6.352 62.304L9.04 52.848H10.672L13.232 62.272L15.68 52.848H17.248ZM19.5934 53.808C19.316 53.808 19.0814 53.712 18.8894 53.52C18.6974 53.328 18.6014 53.0933 18.6014 52.816C18.6014 52.5387 18.6974 52.304 18.8894 52.112C19.0814 51.92 19.316 51.824 19.5934 51.824C19.86 51.824 20.084 51.92 20.2654 52.112C20.4574 52.304 20.5534 52.5387 20.5534 52.816C20.5534 53.0933 20.4574 53.328 20.2654 53.52C20.084 53.712 19.86 53.808 19.5934 53.808ZM20.2974 55.232V64H18.8414V55.232H20.2974ZM24.5549 56.432V61.6C24.5549 62.0267 24.6455 62.3307 24.8269 62.512C25.0082 62.6827 25.3229 62.768 25.7709 62.768H26.8429V64H25.5309C24.7202 64 24.1122 63.8133 23.7069 63.44C23.3015 63.0667 23.0989 62.4533 23.0989 61.6V56.432H21.9629V55.232H23.0989V53.024H24.5549V55.232H26.8429V56.432H24.5549ZM32.959 55.072C33.6203 55.072 34.2177 55.216 34.751 55.504C35.2843 55.7813 35.7003 56.2027 35.999 56.768C36.3083 57.3333 36.463 58.0213 36.463 58.832V64H35.023V59.04C35.023 58.1653 34.8043 57.4987 34.367 57.04C33.9297 56.5707 33.3323 56.336 32.575 56.336C31.807 56.336 31.1937 56.576 30.735 57.056C30.287 57.536 30.063 58.2347 30.063 59.152V64H28.607V52.16H30.063V56.48C30.351 56.032 30.7457 55.6853 31.247 55.44C31.759 55.1947 32.3297 55.072 32.959 55.072ZM44.563 62.816H48.467V64H43.107V52.848H44.563V62.816ZM53.8373 64.144C53.0159 64.144 52.2693 63.9573 51.5973 63.584C50.9359 63.2107 50.4133 62.6827 50.0293 62C49.6559 61.3067 49.4693 60.5067 49.4693 59.6C49.4693 58.704 49.6613 57.9147 50.0453 57.232C50.4399 56.5387 50.9733 56.0107 51.6453 55.648C52.3173 55.2747 53.0693 55.088 53.9013 55.088C54.7333 55.088 55.4853 55.2747 56.1573 55.648C56.8293 56.0107 57.3573 56.5333 57.7413 57.216C58.1359 57.8987 58.3333 58.6933 58.3333 59.6C58.3333 60.5067 58.1306 61.3067 57.7253 62C57.3306 62.6827 56.7919 63.2107 56.1093 63.584C55.4266 63.9573 54.6693 64.144 53.8373 64.144ZM53.8373 62.864C54.3599 62.864 54.8506 62.7413 55.3093 62.496C55.7679 62.2507 56.1359 61.8827 56.4133 61.392C56.7013 60.9013 56.8453 60.304 56.8453 59.6C56.8453 58.896 56.7066 58.2987 56.4293 57.808C56.1519 57.3173 55.7893 56.9547 55.3413 56.72C54.8933 56.4747 54.4079 56.352 53.8853 56.352C53.3519 56.352 52.8613 56.4747 52.4133 56.72C51.9759 56.9547 51.6239 57.3173 51.3573 57.808C51.0906 58.2987 50.9573 58.896 50.9573 59.6C50.9573 60.3147 51.0853 60.9173 51.3413 61.408C51.6079 61.8987 51.9599 62.2667 52.3973 62.512C52.8346 62.7467 53.3146 62.864 53.8373 62.864ZM63.5116 62.656L66.2316 55.232H67.7836L64.3436 64H62.6476L59.2076 55.232H60.7756L63.5116 62.656ZM77.2164 59.28C77.2164 59.5573 77.2004 59.8507 77.1684 60.16H70.1604C70.2137 61.024 70.507 61.7013 71.0404 62.192C71.5844 62.672 72.2404 62.912 73.0084 62.912C73.6377 62.912 74.1604 62.768 74.5764 62.48C75.003 62.1813 75.3017 61.7867 75.4724 61.296H77.0404C76.8057 62.1387 76.3364 62.8267 75.6324 63.36C74.9284 63.8827 74.0537 64.144 73.0084 64.144C72.1764 64.144 71.4297 63.9573 70.7684 63.584C70.1177 63.2107 69.6057 62.6827 69.2324 62C68.859 61.3067 68.6724 60.5067 68.6724 59.6C68.6724 58.6933 68.8537 57.8987 69.2164 57.216C69.579 56.5333 70.0857 56.0107 70.7364 55.648C71.3977 55.2747 72.155 55.088 73.0084 55.088C73.8404 55.088 74.5764 55.2693 75.2164 55.632C75.8564 55.9947 76.347 56.496 76.6884 57.136C77.0404 57.7653 77.2164 58.48 77.2164 59.28ZM75.7124 58.976C75.7124 58.4213 75.5897 57.9467 75.3444 57.552C75.099 57.1467 74.763 56.8427 74.3364 56.64C73.9204 56.4267 73.4564 56.32 72.9444 56.32C72.2084 56.32 71.579 56.5547 71.0564 57.024C70.5444 57.4933 70.251 58.144 70.1764 58.976H75.7124ZM89.7079 52.848V54.032H84.8599V57.792H88.7959V58.976H84.8599V64H83.4039V52.848H89.7079ZM92.9224 56.656C93.1784 56.1547 93.541 55.7653 94.0104 55.488C94.4904 55.2107 95.0717 55.072 95.7544 55.072V56.576H95.3704C93.7384 56.576 92.9224 57.4613 92.9224 59.232V64H91.4664V55.232H92.9224V56.656ZM101.259 64.144C100.438 64.144 99.6911 63.9573 99.0191 63.584C98.3578 63.2107 97.8351 62.6827 97.4511 62C97.0778 61.3067 96.8911 60.5067 96.8911 59.6C96.8911 58.704 97.0831 57.9147 97.4671 57.232C97.8618 56.5387 98.3951 56.0107 99.0671 55.648C99.7391 55.2747 100.491 55.088 101.323 55.088C102.155 55.088 102.907 55.2747 103.579 55.648C104.251 56.0107 104.779 56.5333 105.163 57.216C105.558 57.8987 105.755 58.6933 105.755 59.6C105.755 60.5067 105.552 61.3067 105.147 62C104.752 62.6827 104.214 63.2107 103.531 63.584C102.848 63.9573 102.091 64.144 101.259 64.144ZM101.259 62.864C101.782 62.864 102.272 62.7413 102.731 62.496C103.19 62.2507 103.558 61.8827 103.835 61.392C104.123 60.9013 104.267 60.304 104.267 59.6C104.267 58.896 104.128 58.2987 103.851 57.808C103.574 57.3173 103.211 56.9547 102.763 56.72C102.315 56.4747 101.83 56.352 101.307 56.352C100.774 56.352 100.283 56.4747 99.8351 56.72C99.3978 56.9547 99.0458 57.3173 98.7791 57.808C98.5125 58.2987 98.3791 58.896 98.3791 59.6C98.3791 60.3147 98.5071 60.9173 98.7631 61.408C99.0298 61.8987 99.3818 62.2667 99.8191 62.512C100.256 62.7467 100.736 62.864 101.259 62.864ZM118.214 55.072C118.896 55.072 119.504 55.216 120.038 55.504C120.571 55.7813 120.992 56.2027 121.302 56.768C121.611 57.3333 121.766 58.0213 121.766 58.832V64H120.326V59.04C120.326 58.1653 120.107 57.4987 119.67 57.04C119.243 56.5707 118.662 56.336 117.926 56.336C117.168 56.336 116.566 56.5813 116.118 57.072C115.67 57.552 115.446 58.2507 115.446 59.168V64H114.006V59.04C114.006 58.1653 113.787 57.4987 113.35 57.04C112.923 56.5707 112.342 56.336 111.606 56.336C110.848 56.336 110.246 56.5813 109.798 57.072C109.35 57.552 109.126 58.2507 109.126 59.168V64H107.67V55.232H109.126V56.496C109.414 56.0373 109.798 55.6853 110.278 55.44C110.768 55.1947 111.307 55.072 111.894 55.072C112.63 55.072 113.28 55.2373 113.846 55.568C114.411 55.8987 114.832 56.384 115.11 57.024C115.355 56.4053 115.76 55.9253 116.326 55.584C116.891 55.2427 117.52 55.072 118.214 55.072ZM135.012 61.52H130.148L129.252 64H127.715L131.748 52.912H133.428L137.444 64H135.908L135.012 61.52ZM134.596 60.336L132.58 54.704L130.564 60.336H134.596ZM142.769 56.432H140.929V64H139.473V56.432H138.337V55.232H139.473V54.608C139.473 53.6267 139.723 52.912 140.225 52.464C140.737 52.0053 141.553 51.776 142.673 51.776V52.992C142.033 52.992 141.579 53.12 141.313 53.376C141.057 53.6213 140.929 54.032 140.929 54.608V55.232H142.769V56.432ZM145.922 56.656C146.178 56.1547 146.541 55.7653 147.01 55.488C147.49 55.2107 148.072 55.072 148.754 55.072V56.576H148.37C146.738 56.576 145.922 57.4613 145.922 59.232V64H144.466V55.232H145.922V56.656ZM151.187 53.808C150.91 53.808 150.675 53.712 150.483 53.52C150.291 53.328 150.195 53.0933 150.195 52.816C150.195 52.5387 150.291 52.304 150.483 52.112C150.675 51.92 150.91 51.824 151.187 51.824C151.454 51.824 151.678 51.92 151.859 52.112C152.051 52.304 152.147 52.5387 152.147 52.816C152.147 53.0933 152.051 53.328 151.859 53.52C151.678 53.712 151.454 53.808 151.187 53.808ZM151.891 55.232V64H150.435V55.232H151.891ZM153.829 59.6C153.829 58.6933 154.01 57.904 154.373 57.232C154.735 56.5493 155.237 56.0213 155.877 55.648C156.527 55.2747 157.269 55.088 158.101 55.088C159.178 55.088 160.063 55.3493 160.757 55.872C161.461 56.3947 161.925 57.12 162.149 58.048H160.581C160.431 57.5147 160.138 57.0933 159.701 56.784C159.274 56.4747 158.741 56.32 158.101 56.32C157.269 56.32 156.597 56.608 156.085 57.184C155.573 57.7493 155.317 58.5547 155.317 59.6C155.317 60.656 155.573 61.472 156.085 62.048C156.597 62.624 157.269 62.912 158.101 62.912C158.741 62.912 159.274 62.7627 159.701 62.464C160.127 62.1653 160.421 61.7387 160.581 61.184H162.149C161.914 62.08 161.445 62.8 160.741 63.344C160.037 63.8773 159.157 64.144 158.101 64.144C157.269 64.144 156.527 63.9573 155.877 63.584C155.237 63.2107 154.735 62.6827 154.373 62C154.01 61.3173 153.829 60.5173 153.829 59.6ZM163.547 59.584C163.547 58.688 163.729 57.904 164.091 57.232C164.454 56.5493 164.95 56.0213 165.579 55.648C166.219 55.2747 166.929 55.088 167.707 55.088C168.475 55.088 169.142 55.2533 169.707 55.584C170.273 55.9147 170.694 56.3307 170.971 56.832V55.232H172.443V64H170.971V62.368C170.683 62.88 170.251 63.3067 169.675 63.648C169.11 63.9787 168.449 64.144 167.691 64.144C166.913 64.144 166.209 63.952 165.579 63.568C164.95 63.184 164.454 62.6453 164.091 61.952C163.729 61.2587 163.547 60.4693 163.547 59.584ZM170.971 59.6C170.971 58.9387 170.838 58.3627 170.571 57.872C170.305 57.3813 169.942 57.008 169.483 56.752C169.035 56.4853 168.539 56.352 167.995 56.352C167.451 56.352 166.955 56.48 166.507 56.736C166.059 56.992 165.702 57.3653 165.435 57.856C165.169 58.3467 165.035 58.9227 165.035 59.584C165.035 60.256 165.169 60.8427 165.435 61.344C165.702 61.8347 166.059 62.2133 166.507 62.48C166.955 62.736 167.451 62.864 167.995 62.864C168.539 62.864 169.035 62.736 169.483 62.48C169.942 62.2133 170.305 61.8347 170.571 61.344C170.838 60.8427 170.971 60.2613 170.971 59.6Z" fill="#9F42AA"/>
</svg>
