<svg width="47" height="13" viewBox="0 0 47 13" fill="none" xmlns="http://www.w3.org/2000/svg">
<path d="M21.78 0.704886C22.4756 1.38186 23.3609 1.66393 23.3609 1.18441C23.3293 0.676679 22.444 -0.000289202 21.78 -0.000289202H21.0527L21.78 0.704886Z" fill="#183864"/>
<path d="M45.0827 1.12439C45.2724 1.77315 45.3356 1.80136 46.1577 1.40646C46.6003 1.1808 46.7584 1.20901 46.7584 1.43467C46.7584 1.63212 46.8533 1.71674 46.9482 1.60391C47.1695 1.40646 46.632 0.503835 46.2525 0.503835C46.1261 0.503835 45.9047 0.757698 45.7783 1.03977C45.5569 1.51929 45.5253 1.51929 45.5253 1.03977C45.4937 0.785905 45.3672 0.560249 45.2091 0.560249C45.051 0.560249 44.9878 0.814112 45.0827 1.12439Z" fill="#183864"/>
<path d="M0.595398 2.22738C-0.163448 2.76331 -0.163448 2.79152 0.405687 3.35566C0.911584 3.83518 0.974822 4.34291 0.848347 7.84057L0.753491 11.7896L1.82852 11.7613L2.87194 11.7331L2.74546 8.96885C2.68223 7.44567 2.71385 6.20457 2.8087 6.20457C2.90356 6.20457 3.37784 6.85333 3.85211 7.61492C4.35801 8.40471 4.80067 9.02527 4.86391 9.02527C4.89553 9.02527 5.40143 8.37651 5.97056 7.61492C6.5397 6.82512 7.04559 6.20457 7.14045 6.20457C7.23531 6.20457 7.26692 7.44567 7.17207 8.96885L7.01398 11.7331H8.08901H9.13242V7.30464C9.13242 4.85063 9.22728 2.67869 9.32213 2.42483C9.48023 2.08635 9.32213 1.97352 8.78462 1.97352C8.18386 2.00173 7.67797 2.48124 6.50808 4.11725L4.95877 6.23277L3.69402 4.59677C2.99841 3.72235 2.27118 2.67869 2.08147 2.34021C1.70205 1.55041 1.60719 1.55041 0.595398 2.22738Z" fill="#183864"/>
<path d="M37.2097 2.9048C34.6486 6.57171 35.4391 11.1695 38.7274 11.7336C39.3914 11.8464 40.1186 11.7336 40.7194 11.4797C41.415 11.1695 41.6996 11.1413 41.6996 11.3669C41.6996 11.5644 42.079 11.7054 42.5849 11.7336L43.4386 11.7618V6.85379V1.97396H42.4268H41.3834V5.78192C41.3834 9.56166 41.3834 9.61808 40.6245 9.90015C37.5259 11.1695 36.5141 6.71275 39.1701 3.38432L39.8024 2.59452L39.012 2.1432C38.6009 1.88934 38.1899 1.69189 38.1583 1.69189C38.095 1.69189 37.684 2.22783 37.2097 2.9048Z" fill="#183864"/>
<path d="M12.5155 4.51266C11.8832 6.34612 11.5037 7.05129 11.1559 7.05129C10.7133 7.05129 10.65 7.27695 10.8081 8.23599C10.9346 8.96937 10.8081 9.78738 10.5236 10.4079C10.2706 10.9439 10.1125 11.3952 10.1441 11.4234C10.2074 11.4516 10.65 11.6208 11.1876 11.7619L12.1361 12.0439L12.6104 10.3515L13.0847 8.6591L14.6656 8.63089C15.9936 8.63089 16.2465 8.6873 16.3414 9.16682C16.4046 9.4771 16.5943 10.2105 16.7524 10.7746C17.037 11.7619 17.1635 11.8465 18.1437 11.8465C18.7444 11.8465 19.2503 11.8183 19.2503 11.7619C19.2503 11.7055 18.8393 10.6618 18.365 9.42069C17.8591 8.20778 17.1002 6.00763 16.7208 4.56907L15.962 1.97402H14.6656H13.3692L12.5155 4.51266ZM15.2347 5.41528L15.709 7.05129H14.6024C13.717 7.05129 13.559 6.96667 13.6854 6.54357C13.7803 6.2897 14.0016 5.49991 14.1913 4.82294C14.381 4.17417 14.6024 3.66645 14.6656 3.69465C14.7288 3.75107 14.9818 4.54086 15.2347 5.41528Z" fill="#183864"/>
<path d="M20.136 3.94814C20.1993 5.24567 20.136 5.92264 19.9147 5.92264C19.725 5.92264 19.5669 6.28933 19.5669 6.76885C19.5669 7.22016 19.725 7.61506 19.9147 7.61506C20.1044 7.61506 20.2309 8.34844 20.1676 9.61776L20.1044 11.5922L23.1398 11.6487L26.2068 11.7051V10.8589V10.0127L24.1516 10.0973L22.0964 10.2101V8.74334V7.24837L23.6773 7.44582L25.2582 7.64327V6.76885C25.2582 5.95084 25.2266 5.92264 23.6773 5.92264H22.0964V4.62511V3.29938L23.9935 3.46863L25.8906 3.66607V2.81986V1.97365H22.9817H20.0412L20.136 3.94814Z" fill="#183864"/>
<path d="M27.1553 6.85347V11.7051L29.6215 11.6205C30.9495 11.5358 32.4356 11.3102 32.9099 11.1127C35.2813 10.0127 35.3445 5.89443 33.068 3.72249C31.9929 2.67883 30.159 1.97365 28.5781 1.97365H27.1553V6.85347ZM30.823 4.20201C32.5937 5.16105 33.3209 7.3894 32.3723 8.9972C31.8664 9.89983 31.3289 10.1537 29.9693 10.1537H29.0524V6.90988C29.0524 3.3558 29.1156 3.27118 30.823 4.20201Z" fill="#183864"/>
</svg>
