<svg width="50" height="50" viewBox="0 0 50 50" fill="none" xmlns="http://www.w3.org/2000/svg">
<g clip-path="url(#clip0_768_916)">
<path d="M41.9188 38.3937C41.9188 38.9843 41.5204 39.4093 40.947 39.4093C40.3563 39.4093 39.9751 38.9577 39.9751 38.3937C39.9751 37.8296 40.3563 37.378 40.947 37.378C41.5204 37.378 41.9188 37.8296 41.9188 38.3937ZM14.9392 37.378C14.322 37.378 13.9673 37.8296 13.9673 38.3937C13.9673 38.9577 14.3235 39.4093 14.9392 39.4093C15.5032 39.4093 15.8845 38.9843 15.8845 38.3937C15.8751 37.8296 15.5032 37.378 14.9392 37.378ZM25.1392 37.353C24.6704 37.353 24.3829 37.6562 24.3142 38.1077H25.972C25.8938 37.6124 25.5907 37.353 25.1392 37.353ZM34.497 37.378C33.9063 37.378 33.5517 37.8296 33.5517 38.3937C33.5517 38.9577 33.9079 39.4093 34.497 39.4093C35.0876 39.4093 35.4688 38.9843 35.4688 38.3937C35.4688 37.8296 35.086 37.378 34.497 37.378ZM43.6892 39.6437C43.6892 39.6702 43.7157 39.6874 43.7157 39.739C43.7157 39.7655 43.6892 39.7827 43.6892 39.8343C43.6626 39.8608 43.6626 39.878 43.6454 39.903C43.6188 39.9296 43.6017 39.9468 43.5501 39.9468C43.5235 39.9733 43.5063 39.9733 43.4548 39.9733C43.4282 39.9733 43.411 39.9733 43.3595 39.9468C43.3329 39.9468 43.3157 39.9202 43.2907 39.903C43.2642 39.8765 43.247 39.8593 43.247 39.8343C43.2204 39.7905 43.2204 39.7655 43.2204 39.739C43.2204 39.6952 43.2204 39.6702 43.247 39.6437C43.247 39.5999 43.2735 39.5749 43.2907 39.5483C43.3173 39.5218 43.3345 39.5218 43.3595 39.5046C43.4032 39.478 43.4282 39.478 43.4548 39.478C43.4985 39.478 43.5235 39.478 43.5501 39.5046C43.5938 39.5296 43.6188 39.5296 43.6454 39.5483C43.672 39.5671 43.6626 39.5999 43.6892 39.6437ZM43.4985 39.7655C43.5423 39.7655 43.5423 39.739 43.5673 39.739C43.5938 39.7124 43.5938 39.6952 43.5938 39.6702C43.5938 39.6452 43.5938 39.6265 43.5673 39.6015C43.5423 39.6015 43.5235 39.5749 43.472 39.5749H43.3329V39.878H43.4017V39.7562H43.4282L43.5235 39.878H43.5923L43.4985 39.7655ZM50.0001 9.80928V40.3655C49.9997 41.4706 49.5605 42.5303 48.7791 43.3117C47.9977 44.0931 46.938 44.5323 45.8329 44.5327H4.16572C3.06064 44.5323 2.00094 44.0931 1.21953 43.3117C0.438124 42.5303 -0.00105072 41.4706 -0.00146484 40.3655V9.80928C-0.00105072 8.7042 0.438124 7.6445 1.21953 6.86309C2.00094 6.08168 3.06064 5.6425 4.16572 5.64209H45.8329C46.938 5.6425 47.9977 6.08168 48.7791 6.86309C49.5605 7.6445 49.9997 8.7042 50.0001 9.80928ZM5.55635 21.9265C5.55635 28.5671 10.947 33.9483 17.5782 33.9483C19.9398 33.9416 22.248 33.2448 24.2188 31.9437C17.8907 26.7968 17.9345 17.0827 24.2188 11.9343C22.2499 10.629 19.9405 9.93184 17.5782 9.92959C10.947 9.92178 5.55635 15.3108 5.55635 21.9265ZM25.0001 31.3718C31.1204 26.5968 31.0938 17.2921 25.0001 12.4921C18.9063 17.2921 18.8798 26.6062 25.0001 31.3718ZM12.647 37.9952C12.647 37.2405 12.1517 36.7452 11.3704 36.7187C10.9704 36.7187 10.5454 36.8405 10.2595 37.2827C10.0517 36.9265 9.69541 36.7187 9.2001 36.7187C9.02011 36.7159 8.84218 36.7572 8.68179 36.8389C8.52139 36.9205 8.38339 37.0402 8.27979 37.1874V36.8062H7.56885V39.9921H8.27979C8.27979 38.3515 8.0626 37.3702 9.06104 37.3702C9.94697 37.3702 9.77353 38.2561 9.77353 39.9921H10.4595C10.4595 38.403 10.2423 37.3702 11.2407 37.3702C12.1267 37.3702 11.9517 38.239 11.9517 39.9921H12.6642V37.9952H12.647ZM16.5454 36.8062H15.8595V37.1874C15.7381 37.0359 15.5831 36.9148 15.4069 36.8334C15.2306 36.7521 15.0379 36.7128 14.8438 36.7187C13.9501 36.7187 13.2642 37.4312 13.2642 38.3937C13.2642 39.3655 13.9501 40.0686 14.8438 40.0686C15.2954 40.0686 15.6251 39.903 15.8595 39.5999V39.9999H16.5454V36.8062ZM20.061 39.028C20.061 37.7265 18.0735 38.3155 18.0735 37.7077C18.0735 37.2124 19.1063 37.2921 19.6798 37.6124L19.9657 37.0483C19.1501 36.5187 17.3438 36.528 17.3438 37.7608C17.3438 39.0015 19.3313 38.4812 19.3313 39.0624C19.3313 39.6093 18.1595 39.5655 17.5345 39.1312L17.2313 39.678C18.2032 40.3374 20.061 40.1983 20.061 39.0265V39.028ZM23.1345 39.8343L22.9438 39.2437C22.6142 39.4249 21.8845 39.6249 21.8845 38.8874V37.4468H23.022V36.8046H21.8845V35.8327H21.172V36.8046H20.5126V37.439H21.172V38.889C21.172 40.4171 22.6735 40.139 23.1345 39.8343ZM24.2876 38.6718H26.6751C26.6751 37.2655 26.0329 36.7093 25.1642 36.7093C24.2438 36.7093 23.5845 37.3952 23.5845 38.3843C23.5845 40.164 25.547 40.4593 26.5188 39.6171L26.1892 39.0968C25.5126 39.653 24.4876 39.5999 24.2876 38.6718ZM29.4188 36.8062C29.0204 36.6327 28.4126 36.6499 28.1001 37.1874V36.8062H27.3876V39.9921H28.1001V38.1952C28.1001 37.1874 28.9251 37.3187 29.211 37.4655L29.4188 36.8062ZM30.3392 38.3937C30.3392 37.403 31.347 37.0827 32.136 37.664L32.4657 37.0999C31.4579 36.3108 29.6267 36.7437 29.6267 38.4015C29.6267 40.1202 31.5704 40.4671 32.4657 39.703L32.136 39.139C31.3376 39.703 30.3392 39.3655 30.3392 38.3921V38.3937ZM36.1282 36.8062H35.4157V37.1874C34.6954 36.2327 32.8204 36.7718 32.8204 38.3937C32.8204 40.0608 34.7642 40.5374 35.4157 39.5999V39.9999H36.1282V36.8062ZM39.0532 36.8062C38.8454 36.7015 38.0985 36.5546 37.7345 37.1874V36.8062H37.0485V39.9921H37.7345V38.1952C37.7345 37.2405 38.5157 37.3015 38.8454 37.4655L39.0532 36.8062ZM42.5517 35.5124H41.8657V37.1874C41.1532 36.2421 39.2704 36.7452 39.2704 38.3937C39.2704 40.078 41.2235 40.528 41.8657 39.5999V39.9999H42.5517V35.5124ZM43.2126 28.9937V29.3937H43.2813V28.9937H43.4454V28.9249H43.0454V28.9937H43.2126ZM43.7845 39.739C43.7845 39.6952 43.7845 39.6437 43.7595 39.5999C43.7329 39.5733 43.7157 39.5312 43.6907 39.5046C43.6657 39.478 43.622 39.4608 43.5954 39.4358C43.5517 39.4358 43.5001 39.4093 43.4563 39.4093C43.4298 39.4093 43.3876 39.4358 43.3345 39.4358C43.3002 39.4551 43.2682 39.4781 43.2392 39.5046C43.1954 39.5296 43.1704 39.5733 43.1704 39.5999C43.1438 39.6437 43.1438 39.6952 43.1438 39.739C43.1438 39.7655 43.1438 39.8077 43.1704 39.8608C43.1704 39.8874 43.197 39.9296 43.2392 39.9562C43.2655 39.9857 43.2981 40.0092 43.3345 40.0249C43.3782 40.0499 43.4298 40.0499 43.4563 40.0499C43.5001 40.0499 43.5517 40.0499 43.5954 40.0249C43.622 39.9983 43.6642 39.9812 43.6907 39.9562C43.7173 39.9312 43.7345 39.8874 43.7595 39.8608C43.7845 39.8093 43.7845 39.7655 43.7845 39.739ZM44.0626 28.9155H43.9407L43.8017 29.2187L43.6626 28.9155H43.5407V29.3843H43.6095V29.028L43.7485 29.3312H43.8438L43.9657 29.028V29.3843H44.061L44.0626 28.9155ZM44.4438 21.9265C44.4438 15.3108 39.0532 9.92178 32.422 9.92178C30.0602 9.9277 27.7518 10.6246 25.7813 11.9265C32.0407 17.0749 32.136 26.814 25.7813 31.9358C27.7513 33.2388 30.0601 33.9358 32.422 33.9405C39.0532 33.9499 44.4438 28.5671 44.4438 21.9265Z" fill="#183864"/>
</g>
<defs>
<clipPath id="clip0_768_916">
<rect width="50" height="50" fill="white"/>
</clipPath>
</defs>
</svg>
