<svg width="42" height="12" viewBox="0 0 42 12" fill="none" xmlns="http://www.w3.org/2000/svg">
<path d="M41.8332 0.874815H38.279C37.4277 2.18511 36.4554 3.41271 35.3748 4.54148C34.2835 3.42161 33.3097 2.19299 32.4686 0.874815H28.8769C30.1161 2.7848 31.5366 4.57084 33.1186 6.20815C31.5682 7.92689 30.1503 9.76061 28.8769 11.6936H32.4686C33.308 10.3388 34.2817 9.07203 35.3748 7.91232C36.4399 9.08064 37.3889 10.3498 38.2082 11.7019H41.8332C40.573 9.76188 39.1609 7.92487 37.6103 6.20815C39.1609 4.54844 40.5733 2.76472 41.8332 0.874815ZM25.5207 2.3019C25.0785 1.74916 24.5144 1.30634 23.8725 1.00815C23.2305 0.70995 22.5282 0.564482 21.8207 0.583147C20.3476 0.625151 18.9511 1.24845 17.9361 2.31687C16.9212 3.38529 16.3704 4.81197 16.404 6.28523C16.372 7.75803 16.9234 9.18378 17.938 10.2518C18.9526 11.3199 20.3482 11.9437 21.8207 11.9873C22.5277 12.0049 23.2292 11.8593 23.8708 11.562C24.5125 11.2647 25.077 10.8235 25.5207 10.2727V11.6977H28.354V0.874815H25.5207V2.3019ZM22.2707 9.48315C21.639 9.48315 21.0215 9.29584 20.4963 8.9449C19.9711 8.59397 19.5618 8.09518 19.32 7.51159C19.0783 6.92801 19.0151 6.28586 19.1383 5.66633C19.2615 5.0468 19.5657 4.47773 20.0124 4.03108C20.459 3.58442 21.0281 3.28025 21.6476 3.15702C22.2671 3.03378 22.9093 3.09703 23.4929 3.33876C24.0764 3.58049 24.5752 3.98984 24.9262 4.51505C25.2771 5.04026 25.4644 5.65773 25.4644 6.2894C25.4652 6.70904 25.3832 7.12471 25.223 7.51257C25.0628 7.90042 24.8276 8.25283 24.5308 8.54956C24.2341 8.84629 23.8817 9.08151 23.4938 9.24172C23.106 9.40193 22.6903 9.48397 22.2707 9.48315ZM13.0498 0.583147C11.6341 0.680657 10.2924 1.25239 9.2415 2.20606C9.04608 1.70863 8.70001 1.28474 8.25173 0.993738C7.80346 0.702733 7.27541 0.559171 6.7415 0.583147C5.33535 0.689303 4.00642 1.26787 2.97067 2.22481V0.874815H0.166504V11.7081H3.14359V4.97065C4.44359 3.94356 5.03942 3.61857 5.52692 3.61857C6.104 3.61857 6.48317 3.97898 6.48317 4.88107V11.7019H9.46025V4.95815C10.7582 3.94773 11.3353 3.62273 11.8415 3.62273C12.4186 3.62273 12.7978 3.98315 12.7978 4.88523V11.7061H15.7748V3.83523C15.7748 1.39773 14.3853 0.583147 13.0498 0.583147ZM22.2707 3.81648C21.7808 3.81277 21.3008 3.95464 20.8917 4.2241C20.4826 4.49356 20.1627 4.87846 19.9727 5.32999C19.7826 5.78152 19.731 6.27932 19.8243 6.76025C19.9175 7.24117 20.1516 7.68356 20.4967 8.03128C20.8417 8.379 21.2823 8.61639 21.7625 8.71334C22.2427 8.81028 22.7409 8.76242 23.1939 8.57581C23.6468 8.38921 24.0342 8.07227 24.3067 7.66521C24.5793 7.25814 24.7248 6.77929 24.7248 6.2894C24.7268 5.96569 24.6647 5.64479 24.5423 5.34512C24.4199 5.04545 24.2395 4.7729 24.0115 4.54314C23.7834 4.31337 23.5123 4.13089 23.2135 4.00619C22.9148 3.8815 22.5944 3.81702 22.2707 3.81648Z" fill="#183864"/>
</svg>
