<svg width="34" height="35" viewBox="0 0 34 35" fill="none" xmlns="http://www.w3.org/2000/svg">
<path d="M19.7336 30.6117L30.0216 20.3419L33.875 24.1953L23.587 34.4651L19.7336 30.6117ZM25.5501 15.8341L19.9154 10.2357C19.7 10.0255 19.455 9.84793 19.1883 9.70856L17.1525 1.9108C17.0219 1.45698 16.72 1.07171 16.3106 0.836407C15.9012 0.601106 15.4163 0.534208 14.9584 0.649852C14.5006 0.765495 14.1056 1.05462 13.857 1.45612C13.6084 1.85763 13.5257 2.34005 13.6263 2.80145L15.553 10.1993L11.3178 1.40185C10.8998 0.49302 9.80916 0.147664 8.90033 0.529373C7.9915 0.965612 7.60979 2.05621 8.04603 2.96504L11.1179 9.39956L4.99236 3.32857C4.28347 2.61968 3.12017 2.61968 2.41128 3.32857C1.70239 4.05564 1.72057 5.20076 2.42946 5.90965L9.19116 12.635L7.9188 13.1258L5.95572 13.9074L2.48399 16.3067C2.48399 16.3067 1.01168 18.2152 0.884447 19.0332C0.739034 19.8511 2.3204 23.959 2.3204 23.959H2.33858C2.6294 24.577 3.24741 25.0133 3.97447 25.0133C4.45655 25.0133 4.91887 24.8218 5.25975 24.4809C5.60063 24.14 5.79213 23.6777 5.79213 23.1956C5.79213 23.0138 5.7376 22.8684 5.68307 22.7048L5.71943 22.6867L4.64701 19.5421L6.88273 17.7608C7.73703 17.7972 9.57287 17.9426 10.4635 17.9971C15.4257 22.4504 10.7362 24.1953 10.7362 24.1953L4.44706 26.122L4.13806 26.3765C3.95156 26.5489 3.80584 26.7608 3.71151 26.9966C3.61718 27.2324 3.57662 27.4863 3.59276 27.7398L3.62912 29.6847L15.3167 28.7758C16.0074 28.794 16.6617 28.5395 17.1707 28.0488L25.5501 19.6875C26.5135 18.706 26.5498 16.8702 25.5501 15.8341Z" fill="#5E2764"/>
</svg>
