<svg width="42" height="42" viewBox="0 0 42 42" fill="none" xmlns="http://www.w3.org/2000/svg">
<path d="M38.2727 21H40M21 3.72727V2M21 40V38.2727M34.8182 34.8182L33.0909 33.0909M34.8182 7.18182L33.0909 8.90909M7.18182 34.8182L8.90909 33.0909M7.18182 7.18182L8.90909 8.90909M2 21H3.72727M17.4625 16.8943L20.1554 11.1856C20.2279 11.0222 20.3463 10.8833 20.4963 10.7858C20.6462 10.6883 20.8212 10.6364 21 10.6364C21.1788 10.6364 21.3538 10.6883 21.5037 10.7858C21.6537 10.8833 21.7721 11.0222 21.8446 11.1856L24.5375 16.8943L30.557 17.8149C31.3291 17.9324 31.6365 18.9273 31.0786 19.4973L26.7225 23.9364L27.7502 30.2081C27.8832 31.0147 27.0748 31.6279 26.3839 31.2479L21 28.2856L15.6161 31.2479C14.9252 31.6279 14.1168 31.0147 14.2498 30.2081L15.2775 23.9381L10.9214 19.4973C10.3635 18.9273 10.6709 17.9324 11.443 17.8149L17.4625 16.8943Z" stroke="#5E2764" stroke-width="3" stroke-linecap="round" stroke-linejoin="round"/>
</svg>
