<svg width="50" height="18" viewBox="0 0 50 18" fill="none" xmlns="http://www.w3.org/2000/svg">
<path d="M18.9833 1.21231L12.4375 16.829H8.16667L4.94583 4.36439C4.75 3.59772 4.58125 3.31647 3.98542 2.99355C3.01458 2.46647 1.41042 1.97272 0 1.66439L0.0958333 1.21231H6.97083C7.4201 1.21186 7.85473 1.37202 8.19627 1.6639C8.53781 1.95577 8.76376 2.36013 8.83333 2.80397L10.5354 11.8415L14.7396 1.21231H18.9833ZM35.7188 11.7311C35.7354 7.60814 30.0187 7.38105 30.0583 5.53939C30.0708 4.97897 30.6042 4.38314 31.7708 4.23106C33.1381 4.1012 34.5151 4.34305 35.7562 4.93106L36.4646 1.61856C35.2563 1.16397 33.9764 0.929027 32.6854 0.924805C28.6917 0.924805 25.8813 3.0498 25.8562 6.08939C25.8312 8.3373 27.8625 9.58939 29.3937 10.3394C30.9688 11.104 31.4979 11.5956 31.4896 12.279C31.4792 13.329 30.2354 13.7894 29.0729 13.8081C27.0417 13.8394 25.8646 13.2602 24.9229 12.8227L24.1917 16.2436C25.1354 16.6769 26.8771 17.0561 28.6833 17.0727C32.9271 17.0727 35.7042 14.9769 35.7188 11.7311ZM46.2625 16.829H50L46.7396 1.21231H43.2896C42.9208 1.20803 42.5592 1.3151 42.2522 1.51952C41.9452 1.72394 41.707 2.01621 41.5687 2.35814L35.5083 16.829H39.75L40.5938 14.4956H45.7771L46.2625 16.829ZM41.7562 11.2956L43.8812 5.43105L45.1062 11.2956H41.7562ZM24.7563 1.21231L21.4167 16.829H17.375L20.7187 1.21231H24.7563Z" fill="#183864"/>
</svg>
