<svg width="34" height="28" viewBox="0 0 34 28" fill="none" xmlns="http://www.w3.org/2000/svg">
<path d="M17.0002 0.666504C18.4252 0.666504 19.8868 0.703171 21.3035 0.763171L22.9768 0.84317L24.5785 0.938171L26.0785 1.03984L27.4485 1.1465C28.9355 1.25966 30.3348 1.89389 31.4001 2.93751C32.4654 3.98112 33.1282 5.36716 33.2718 6.8515L33.3385 7.55984L33.4635 9.0765C33.5802 10.6482 33.6668 12.3615 33.6668 13.9998C33.6668 15.6382 33.5802 17.3515 33.4635 18.9232L33.3385 20.4398L33.2718 21.1482C33.1281 22.6328 32.4651 24.019 31.3995 25.0627C30.3339 26.1063 28.9341 26.7404 27.4468 26.8532L26.0802 26.9582L24.5802 27.0615L22.9768 27.1565L21.3035 27.2365C19.8699 27.2986 18.4351 27.3308 17.0002 27.3332C15.5652 27.3308 14.1304 27.2986 12.6968 27.2365L11.0235 27.1565L9.42183 27.0615L7.92183 26.9582L6.55183 26.8532C5.06485 26.74 3.6655 26.1058 2.60024 25.0622C1.53498 24.0186 0.872147 22.6325 0.728496 21.1482L0.66183 20.4398L0.536829 18.9232C0.409884 17.285 0.342062 15.6429 0.333496 13.9998C0.333496 12.3615 0.420163 10.6482 0.536829 9.0765L0.66183 7.55984L0.728496 6.8515C0.872092 5.36743 1.53468 3.98159 2.5996 2.93801C3.66452 1.89444 5.06348 1.26003 6.55016 1.1465L7.9185 1.03984L9.4185 0.938171L11.0218 0.84317L12.6952 0.763171C14.1293 0.701049 15.5646 0.66882 17.0002 0.666504ZM17.0002 3.99984C15.6252 3.99984 14.2102 4.0365 12.8335 4.09317L11.2035 4.1715L9.6385 4.26317L8.1685 4.36317L6.82183 4.46817C6.11382 4.51774 5.44631 4.81672 4.93793 5.31198C4.42955 5.80724 4.11322 6.4667 4.04516 7.17317C3.85016 9.18817 3.66683 11.6965 3.66683 13.9998C3.66683 16.3032 3.85016 18.8115 4.04516 20.8265C4.18683 22.2798 5.34016 23.4098 6.82183 23.5315L8.1685 23.6348L9.6385 23.7348L11.2035 23.8282L12.8335 23.9065C14.2102 23.9632 15.6252 23.9998 17.0002 23.9998C18.3752 23.9998 19.7902 23.9632 21.1668 23.9065L22.7968 23.8282L24.3618 23.7365L25.8318 23.6365L27.1785 23.5315C27.8865 23.4819 28.554 23.183 29.0624 22.6877C29.5708 22.1924 29.8871 21.533 29.9552 20.8265C30.1502 18.8115 30.3335 16.3032 30.3335 13.9998C30.3335 11.6965 30.1502 9.18817 29.9552 7.17317C29.8871 6.4667 29.5708 5.80724 29.0624 5.31198C28.554 4.81672 27.8865 4.51774 27.1785 4.46817L25.8318 4.36484L24.3618 4.26484L22.7968 4.1715L21.1668 4.09317C19.7787 4.03359 18.3895 4.00247 17.0002 3.99984ZM13.6668 9.95817C13.6667 9.79528 13.7064 9.63482 13.7824 9.49076C13.8585 9.3467 13.9685 9.22339 14.1031 9.13156C14.2376 9.03973 14.3926 8.98216 14.5544 8.96385C14.7163 8.94554 14.8802 8.96705 15.0318 9.0265L15.1668 9.09317L22.1668 13.1332C22.3062 13.2136 22.4241 13.3265 22.5106 13.4622C22.597 13.598 22.6494 13.7526 22.6633 13.9129C22.6772 14.0732 22.6522 14.2346 22.5905 14.3832C22.5287 14.5318 22.432 14.6633 22.3085 14.7665L22.1668 14.8665L15.1668 18.9082C15.0258 18.9899 14.8669 19.0358 14.704 19.0421C14.5411 19.0483 14.3792 19.0146 14.2323 18.944C14.0854 18.8733 13.958 18.7678 13.8612 18.6367C13.7643 18.5055 13.7011 18.3527 13.6768 18.1915L13.6668 18.0415V9.95817Z" fill="#183864"/>
</svg>
